<svg width="60" height="59" viewBox="0 0 60 59" fill="none" xmlns="http://www.w3.org/2000/svg">
<path d="M30 0C26.0603 0 22.1593 0.781984 18.5195 2.3013C14.8797 3.82062 11.5726 6.04753 8.7868 8.85486C3.16071 14.5245 0 22.2143 0 30.2324C0 43.5951 8.61 54.9323 20.52 58.9532C22.02 59.195 22.5 58.2578 22.5 57.4416V52.3323C14.19 54.1462 12.42 48.2811 12.42 48.2811C11.04 44.7742 9.09 43.837 9.09 43.837C6.36 41.9626 9.3 42.023 9.3 42.023C12.3 42.2347 13.89 45.137 13.89 45.137C16.5 49.7323 20.91 48.3718 22.62 47.6463C22.89 45.6812 23.67 44.3509 24.51 43.5951C17.85 42.8393 10.86 40.2393 10.86 28.7208C10.86 25.365 12 22.6743 13.95 20.5278C13.65 19.772 12.6 16.6278 14.25 12.5464C14.25 12.5464 16.77 11.7302 22.5 15.6301C24.87 14.965 27.45 14.6325 30 14.6325C32.55 14.6325 35.13 14.965 37.5 15.6301C43.23 11.7302 45.75 12.5464 45.75 12.5464C47.4 16.6278 46.35 19.772 46.05 20.5278C48 22.6743 49.14 25.365 49.14 28.7208C49.14 40.2696 42.12 42.8091 35.43 43.5649C36.51 44.5021 37.5 46.3463 37.5 49.1579V57.4416C37.5 58.2578 37.98 59.2253 39.51 58.9532C51.42 54.902 60 43.5951 60 30.2324C60 26.2622 59.224 22.3309 57.7164 18.663C56.2087 14.995 53.999 11.6622 51.2132 8.85486C48.4274 6.04753 45.1203 3.82062 41.4805 2.3013C37.8407 0.781984 33.9397 0 30 0Z" fill="#99A1AF"/>
</svg>
