<svg width="59" height="59" viewBox="0 0 59 59" fill="none" xmlns="http://www.w3.org/2000/svg">
<path d="M52.4444 0C54.1831 0 55.8505 0.690672 57.0799 1.92008C58.3093 3.14948 59 4.81691 59 6.55556V52.4444C59 54.1831 58.3093 55.8505 57.0799 57.0799C55.8505 58.3093 54.1831 59 52.4444 59H6.55556C4.81691 59 3.14948 58.3093 1.92008 57.0799C0.690672 55.8505 0 54.1831 0 52.4444V6.55556C0 4.81691 0.690672 3.14948 1.92008 1.92008C3.14948 0.690672 4.81691 0 6.55556 0H52.4444ZM50.8056 50.8056V33.4333C50.8056 30.5993 49.6798 27.8814 47.6758 25.8775C45.6719 23.8736 42.954 22.7478 40.12 22.7478C37.3339 22.7478 34.0889 24.4522 32.5156 27.0089V23.3706H23.3706V50.8056H32.5156V34.6461C32.5156 32.1222 34.5478 30.0572 37.0717 30.0572C38.2887 30.0572 39.4559 30.5407 40.3165 31.4013C41.1771 32.2619 41.6606 33.4291 41.6606 34.6461V50.8056H50.8056ZM12.7178 18.2244C14.1782 18.2244 15.5789 17.6443 16.6116 16.6116C17.6443 15.5789 18.2244 14.1782 18.2244 12.7178C18.2244 9.66944 15.7661 7.17833 12.7178 7.17833C11.2486 7.17833 9.83965 7.76195 8.8008 8.8008C7.76195 9.83965 7.17833 11.2486 7.17833 12.7178C7.17833 15.7661 9.66944 18.2244 12.7178 18.2244ZM17.2739 50.8056V23.3706H8.19444V50.8056H17.2739Z" fill="#99A1AF"/>
</svg>
