<svg width="59" height="59" viewBox="0 0 59 59" fill="none" xmlns="http://www.w3.org/2000/svg">
<path d="M29.5 0C13.216 0 0 13.216 0 29.5C0 45.784 13.216 59 29.5 59C45.784 59 59 45.784 59 29.5C59 13.216 45.784 0 29.5 0ZM43.188 20.06C42.7455 24.721 40.828 36.049 39.8545 41.2705C39.4415 43.483 38.6155 44.2205 37.8485 44.309C36.1375 44.4565 34.8395 43.188 33.1875 42.0965C30.5915 40.3855 29.1165 39.3235 26.609 37.6715C23.6885 35.754 25.5765 34.692 27.258 32.981C27.7005 32.5385 35.2525 25.665 35.4 25.0455C35.4205 24.9517 35.4178 24.8543 35.3921 24.7617C35.3664 24.6692 35.3184 24.5843 35.2525 24.5145C35.0755 24.367 34.8395 24.426 34.633 24.4555C34.3675 24.5145 30.2375 27.258 22.184 32.686C21.004 33.4825 19.942 33.8955 18.998 33.866C17.936 33.8365 15.93 33.276 14.4255 32.7745C12.567 32.1845 11.1215 31.86 11.2395 30.8275C11.2985 30.2965 12.036 29.7655 13.4225 29.205C22.0365 25.4585 27.7595 22.9805 30.621 21.8005C38.822 18.3785 40.5035 17.7885 41.6245 17.7885C41.8605 17.7885 42.421 17.8475 42.775 18.1425C43.07 18.3785 43.1585 18.703 43.188 18.939C43.1585 19.116 43.2175 19.647 43.188 20.06Z" fill="#99A1AF"/>
</svg>
